<?xml version="1.0" encoding="UTF-8"?>
<svg width="1116.3mm" height="1640.2mm" version="1.1" viewBox="0 0 1116.3 1640.2" xmlns="http://www.w3.org/2000/svg" xmlns:cc="http://creativecommons.org/ns#" xmlns:dc="http://purl.org/dc/elements/1.1/" xmlns:osb="http://www.openswatchbook.org/uri/2009/osb" xmlns:rdf="http://www.w3.org/1999/02/22-rdf-syntax-ns#" xmlns:xlink="http://www.w3.org/1999/xlink">
 <defs>
  <pattern id="pattern3271" patternTransform="matrix(.26874 -.00081591 .00087277 .28747 -301.63 -124.12)" xlink:href="#pattern3162"/>
  <pattern id="pattern3269" patternTransform="matrix(.25452 -.050369 -.30753 -1.554 241.82 652)" xlink:href="#pattern3162"/>
  <pattern id="pattern3261" patternTransform="matrix(.22433 .12139 -.26806 .49535 -501.85 397.09)" xlink:href="#pattern3162"/>
  <pattern id="pattern3175" patternTransform="matrix(.22489 .03866 -.095541 .55577 284.26 309.01)" xlink:href="#pattern3162"/>
  <pattern id="pattern3167" patternTransform="matrix(.22647 -.0032863 .014719 1.0143 -373.7 408.66)" xlink:href="#pattern3162"/>
  <pattern id="pattern3136" patternTransform="matrix(.91972 .10467 -.2785 2.4472 829.45 -604.92)" xlink:href="#pattern3131"/>
  <pattern id="pattern3131" width="554.62526" height="687.54647" patternTransform="translate(-623.12 -625.87)" patternUnits="userSpaceOnUse">
   <rect transform="matrix(.33658 -.94166 .98442 -.17582 0 0)" x="-779.94" y="266.66" width="667.57" height="335.16" ry="0" fill="#2e3440"/>
  </pattern>
  <pattern id="pattern3162" width="4217.143" height="360" patternTransform="translate(-1422.9 -451.43)" patternUnits="userSpaceOnUse">
   <rect width="4217.1" height="360" fill="url(#pattern3136)" style="font-variation-settings:'wght' 537"/>
  </pattern>
 </defs>
 <metadata>
  <rdf:RDF>
   <cc:Work rdf:about="">
    <dc:format>image/svg+xml</dc:format>
    <dc:type rdf:resource="http://purl.org/dc/dcmitype/StillImage"/>
    <dc:title/>
   </cc:Work>
  </rdf:RDF>
 </metadata>
 <g transform="translate(301.63 345.78)">
  <path d="m-284.9-329.68v1608.5h1084v-1609h-1084v0.52916z" fill="none" stroke="#eceeff" stroke-opacity=".3098" stroke-width="29.104"/>
  <path d="m-284.9-329.68v1608.5h1084v-1609h-1084v0.52916z" fill="none" stroke="#d8dee9" stroke-width="31.142"/>
  <g fill="#2e3440" stroke-width=".26458">
   <g transform="translate(74.835 -4.6772)" opacity=".99" style="font-variant-caps:normal;font-variant-east-asian:normal;font-variant-ligatures:normal;font-variant-numeric:normal;font-variation-settings:'wght' 537" aria-label="PENJI">
    <path d="m-330.79 1291.4v-16.03h6.7056q1.0612 0 1.9417 0.4515 0.90311 0.429 1.5579 1.1741 0.67733 0.745 1.0386 1.6707 0.36124 0.9031 0.36124 1.874 0 1.3095-0.6096 2.5061-0.58702 1.1741-1.6708 1.9191-1.0612 0.7451-2.4836 0.7451h-4.6284v5.6896zm2.2126-7.6539h4.493q0.79022 0 1.3772-0.4289 0.6096-0.429 0.92569-1.1515 0.33867-0.7451 0.33867-1.6256 0-0.9483-0.38382-1.6708-0.38383-0.7225-1.016-1.1289-0.63218-0.4064-1.3772-0.4064h-4.3575z" style="font-variant-caps:normal;font-variant-east-asian:normal;font-variant-ligatures:normal;font-variant-numeric:normal;font-variation-settings:'wght' 537"/>
    <path d="m-305.8 1289.5v1.9643h-10.928v-16.03h10.724v1.9642h-8.5118v4.9672h7.3829v1.8288h-7.3829v5.3057z" style="font-variant-caps:normal;font-variant-east-asian:normal;font-variant-ligatures:normal;font-variant-numeric:normal;font-variation-settings:'wght' 537"/>
    <path d="m-300.89 1279.5v11.921h-2.2126v-16.03h1.8514l9.5278 12.192v-12.169h2.2352v16.008h-1.9868z" style="font-variant-caps:normal;font-variant-east-asian:normal;font-variant-ligatures:normal;font-variant-numeric:normal;font-variation-settings:'wght' 537"/>
    <path d="m-286.79 1288.9q0.4064 0.271 1.1515 0.5419 0.74506 0.2709 1.7836 0.2709t1.6933-0.3386q0.65475-0.3613 0.99342-1.0386 0.36125-0.6999 0.49671-1.7837 0.13547-1.0837 0.13547-2.5738v-8.557h2.2126v8.1506q0 1.7836-0.18062 3.2737-0.18062 1.4902-0.74507 2.5965-0.54186 1.0837-1.6482 1.6707-1.0837 0.5871-2.89 0.5871-1.1289 0-1.9868-0.2484-0.85796-0.2483-1.5804-0.7451z" style="font-variant-caps:normal;font-variant-east-asian:normal;font-variant-ligatures:normal;font-variant-numeric:normal;font-variation-settings:'wght' 537"/>
    <path d="m-274.75 1291.4v-16.03h2.2126v16.03z" style="font-variant-caps:normal;font-variant-east-asian:normal;font-variant-ligatures:normal;font-variant-numeric:normal;font-variation-settings:'wght' 537"/>
   </g>
   <g transform="translate(74.835 -4.6772)" opacity=".99" style="font-variant-caps:normal;font-variant-east-asian:normal;font-variant-ligatures:normal;font-variant-numeric:normal;font-variation-settings:'wght' 537" aria-label="JENNIFER BUI">
    <path d="m544.61-318.46q0.4064 0.27093 1.1515 0.54187 0.74507 0.27093 1.7836 0.27093t1.6933-0.33866q0.65476-0.36125 0.99343-1.0386 0.36124-0.69992 0.49671-1.7836t0.13547-2.5739v-8.557h2.2126v8.1506q0 1.7836-0.18062 3.2738-0.18062 1.4901-0.74507 2.5964-0.54187 1.0837-1.6482 1.6708-1.0837 0.58702-2.89 0.58702-1.1289 0-1.9868-0.24836-0.85796-0.24835-1.5804-0.74506z" style="font-variant-caps:normal;font-variant-east-asian:normal;font-variant-ligatures:normal;font-variant-numeric:normal;font-variation-settings:'wght' 537"/>
    <path d="m567.58-317.88v1.9643h-10.928v-16.03h10.724v1.9643h-8.5118v4.9671h7.3829v1.8288h-7.3829v5.3058z" style="font-variant-caps:normal;font-variant-east-asian:normal;font-variant-ligatures:normal;font-variant-numeric:normal;font-variation-settings:'wght' 537"/>
    <path d="m572.49-327.83v11.921h-2.2126v-16.03h1.8514l9.5278 12.192v-12.169h2.2352v16.008h-1.9868z" style="font-variant-caps:normal;font-variant-east-asian:normal;font-variant-ligatures:normal;font-variant-numeric:normal;font-variation-settings:'wght' 537"/>
    <path d="m589.86-327.83v11.921h-2.2126v-16.03h1.8514l9.5278 12.192v-12.169h2.2352v16.008h-1.9868z" style="font-variant-caps:normal;font-variant-east-asian:normal;font-variant-ligatures:normal;font-variant-numeric:normal;font-variation-settings:'wght' 537"/>
    <path d="m605.02-315.91v-16.03h2.2126v16.03z" style="font-variant-caps:normal;font-variant-east-asian:normal;font-variant-ligatures:normal;font-variant-numeric:normal;font-variation-settings:'wght' 537"/>
    <path d="m611.02-315.91v-16.03h10.634v1.9643h-8.4215v5.1477h7.0668v1.8288h-7.0668v7.0894z" style="font-variant-caps:normal;font-variant-east-asian:normal;font-variant-ligatures:normal;font-variant-numeric:normal;font-variation-settings:'wght' 537"/>
    <path d="m635.04-317.88v1.9643h-10.928v-16.03h10.724v1.9643h-8.5118v4.9671h7.3829v1.8288h-7.3829v5.3058z" style="font-variant-caps:normal;font-variant-east-asian:normal;font-variant-ligatures:normal;font-variant-numeric:normal;font-variation-settings:'wght' 537"/>
    <path d="m637.74-315.91v-16.03h6.9088q1.0612 0 1.9417 0.45156 0.90311 0.42898 1.5579 1.174 0.67734 0.74506 1.0386 1.6708 0.36125 0.90312 0.36125 1.874 0 1.0837-0.4064 2.0772-0.4064 0.97084-1.1515 1.6708-0.74507 0.69991-1.7159 0.99342l3.8382 6.1186h-2.5061l-3.5899-5.6896h-4.064v5.6896zm2.2126-7.6539h4.6962q0.79023 0 1.3772-0.42898 0.58702-0.45156 0.92569-1.1966 0.33867-0.74507 0.33867-1.5804 0-0.88053-0.38383-1.603-0.38382-0.74507-1.016-1.174-0.63217-0.42898-1.3772-0.42898h-4.5607z" style="font-variant-caps:normal;font-variant-east-asian:normal;font-variant-ligatures:normal;font-variant-numeric:normal;font-variation-settings:'wght' 537"/>
    <path d="m670.71-320.04q0 1.2644-0.65475 2.19-0.63218 0.92569-1.7385 1.445-1.0837 0.49671-2.3932 0.49671h-7.6313v-16.03h8.0828q1.1289 0 1.9417 0.6096 0.83537 0.58703 1.2644 1.5353 0.45156 0.92569 0.45156 1.9417 0 1.174-0.6096 2.2126-0.58703 1.016-1.6933 1.5127 1.3772 0.4064 2.1675 1.4901 0.8128 1.0837 0.8128 2.5964zm-2.2578-0.40641q0-0.72248-0.31609-1.3095-0.29351-0.6096-0.83538-0.97084-0.51929-0.38383-1.2192-0.38383h-5.5767v5.2832h5.4187q0.72249 0 1.2869-0.36125 0.58703-0.36124 0.90312-0.94826 0.33866-0.6096 0.33866-1.3095zm-7.9474-9.573v5.1252h4.9445q0.69992 0 1.2192-0.33867 0.54186-0.33867 0.83537-0.92569 0.31609-0.58702 0.31609-1.2869 0-0.74507-0.29351-1.3095-0.27093-0.58702-0.79022-0.92569-0.49671-0.33866-1.1515-0.33866z" style="font-variant-caps:normal;font-variant-east-asian:normal;font-variant-ligatures:normal;font-variant-numeric:normal;font-variation-settings:'wght' 537"/>
    <path d="m680.14-315.8q-1.9191 0-3.2286-0.65475-1.3095-0.67734-2.1223-1.8062-0.79022-1.1289-1.1515-2.5739-0.36124-1.445-0.36124-3.0028v-8.1054h2.2126v8.1054q0 1.1515 0.22578 2.2352 0.24836 1.0837 0.76765 1.9417 0.51929 0.85795 1.4224 1.3772 0.90311 0.49672 2.2352 0.49672t2.2352-0.51929 1.4224-1.3772q0.51929-0.88053 0.74507-1.9417 0.24836-1.0837 0.24836-2.2126v-8.1054h2.2126v8.1054q0 1.6482-0.38382 3.1157-0.38382 1.445-1.1966 2.5513-0.81281 1.0837-2.1223 1.7385-1.2869 0.63218-3.1609 0.63218z" style="font-variant-caps:normal;font-variant-east-asian:normal;font-variant-ligatures:normal;font-variant-numeric:normal;font-variation-settings:'wght' 537"/>
    <path d="m690.53-315.91v-16.03h2.2126v16.03z" style="font-variant-caps:normal;font-variant-east-asian:normal;font-variant-ligatures:normal;font-variant-numeric:normal;font-variation-settings:'wght' 537"/>
   </g>
   <g transform="translate(74.835 -4.6772)" style="font-variant-caps:normal;font-variant-east-asian:normal;font-variant-ligatures:normal;font-variant-numeric:normal;font-variation-settings:'wght' 537" aria-label="UNDER CONSTRUCTION">
    <path d="m38.697 1292q-1.9191 0-3.2286-0.6548-1.3095-0.6773-2.1223-1.8062-0.79022-1.1289-1.1515-2.5739-0.36124-1.4449-0.36124-3.0028v-8.1054h2.2126v8.1054q0 1.1515 0.22578 2.2352 0.24836 1.0837 0.76765 1.9417 0.51929 0.8579 1.4224 1.3772 0.90311 0.4967 2.2352 0.4967 1.3321 0 2.2352-0.5192 0.90311-0.5193 1.4224-1.3773 0.51929-0.8805 0.74507-1.9417 0.24836-1.0837 0.24836-2.2126v-8.1054h2.2126v8.1054q0 1.6482-0.38382 3.1157-0.38382 1.445-1.1966 2.5513-0.8128 1.0838-2.1223 1.7385-1.2869 0.6322-3.1609 0.6322z" style="font-variant-caps:normal;font-variant-east-asian:normal;font-variant-ligatures:normal;font-variant-numeric:normal;font-variation-settings:'wght' 537"/>
    <path d="m51.293 1280v11.921h-2.2126v-16.03h1.8514l9.5278 12.192v-12.17h2.2352v16.008h-1.9868z" style="font-variant-caps:normal;font-variant-east-asian:normal;font-variant-ligatures:normal;font-variant-numeric:normal;font-variation-settings:'wght' 537"/>
    <path d="m66.455 1291.9v-16.03h5.5993q2.5964 0 4.3124 1.0837 1.7385 1.0612 2.5964 2.89 0.85796 1.8062 0.85796 4.0188 0 2.4384-0.94827 4.2446-0.94827 1.8063-2.7093 2.7997-1.7385 0.9934-4.1092 0.9934zm11.131-8.0377q0-1.7611-0.65476-3.1157-0.63218-1.3773-1.874-2.1449-1.2192-0.7677-3.0028-0.7677h-3.3867v12.102h3.3867q1.8062 0 3.0254-0.7902 1.2192-0.8128 1.8514-2.19 0.65476-1.3773 0.65476-3.0932z" style="font-variant-caps:normal;font-variant-east-asian:normal;font-variant-ligatures:normal;font-variant-numeric:normal;font-variation-settings:'wght' 537"/>
    <path d="m93.566 1290v1.9643h-10.928v-16.03h10.724v1.9642h-8.5118v4.9672h7.3829v1.8288h-7.3829v5.3057z" style="font-variant-caps:normal;font-variant-east-asian:normal;font-variant-ligatures:normal;font-variant-numeric:normal;font-variation-settings:'wght' 537"/>
    <path d="m96.264 1291.9v-16.03h6.9088q1.0612 0 1.9417 0.4515 0.90311 0.429 1.5579 1.1741 0.67733 0.745 1.0386 1.6707 0.36124 0.9031 0.36124 1.874 0 1.0837-0.4064 2.0771-0.4064 0.9709-1.1515 1.6708t-1.7159 0.9934l3.8382 6.1186h-2.5061l-3.5899-5.6896h-4.064v5.6896zm2.2126-7.6539h4.6962q0.79022 0 1.3772-0.4289 0.58703-0.4516 0.92569-1.1967 0.33867-0.745 0.33867-1.5804 0-0.8805-0.38382-1.603-0.38382-0.7451-1.016-1.1741t-1.3772-0.429h-4.5607z" style="font-variant-caps:normal;font-variant-east-asian:normal;font-variant-ligatures:normal;font-variant-numeric:normal;font-variation-settings:'wght' 537"/>
    <path d="m115.8 1283.8q0-1.4676 0.49672-2.8674 0.51928-1.4224 1.5127-2.5739 0.99342-1.174 2.4158-1.8513 1.4224-0.6999 3.2512-0.6999 2.1449 0 3.6802 0.9934 1.5579 0.9708 2.3255 2.5061l-1.7385 1.1515q-0.47413-0.9934-1.1966-1.5805-0.72249-0.587-1.5579-0.8353-0.8128-0.2484-1.603-0.2484-1.3095 0-2.3255 0.5419-0.99342 0.5193-1.6708 1.3998-0.67733 0.8805-1.016 1.9643-0.33866 1.0837-0.33866 2.19 0 1.2192 0.4064 2.3481 0.4064 1.1063 1.1289 1.9643 0.72249 0.8579 1.7159 1.3772 0.99342 0.4967 2.1675 0.4967 0.8128 0 1.6708-0.2935 0.85795-0.2935 1.603-0.8805 0.74507-0.6096 1.1966-1.5805l1.8288 1.016q-0.49671 1.1967-1.5353 2.032-1.0386 0.8354-2.3255 1.2644-1.2869 0.429-2.5287 0.429-1.6708 0-3.0706-0.6999-1.3772-0.7225-2.3932-1.8966-0.99342-1.1966-1.5579-2.6642-0.54187-1.4901-0.54187-3.0028z" style="font-variant-caps:normal;font-variant-east-asian:normal;font-variant-ligatures:normal;font-variant-numeric:normal;font-variation-settings:'wght' 537"/>
    <path d="m138.64 1292q-1.7159 0-3.1157-0.6773-1.3772-0.6774-2.3932-1.8288-0.99342-1.1741-1.5353-2.6191-0.54187-1.4675-0.54187-3.0028 0-1.603 0.56445-3.048 0.58702-1.4676 1.603-2.5965 1.0386-1.1514 2.4158-1.8062 1.3998-0.6773 3.048-0.6773 1.6933 0 3.0706 0.6999 1.3998 0.6999 2.3932 1.8739 1.016 1.1741 1.5579 2.6191 0.54186 1.445 0.54186 2.9577 0 1.603-0.56444 3.0705-0.56445 1.445-1.603 2.5965-1.0386 1.1289-2.4384 1.7836-1.3772 0.6548-3.0028 0.6548zm-5.3509-8.128q0 1.1966 0.38382 2.3029t1.0837 1.9643q0.69991 0.8579 1.6933 1.3772 0.99342 0.4967 2.2126 0.4967 1.2644 0 2.2352-0.5192 0.99343-0.5419 1.6708-1.4224 0.69991-0.8806 1.0612-1.9643 0.36124-1.1063 0.36124-2.2352 0-1.1966-0.38382-2.2804-0.38382-1.1063-1.1063-1.9642-0.69991-0.8806-1.6708-1.3773-0.97084-0.4967-2.1675-0.4967-1.2644 0-2.2578 0.5193-0.99342 0.5193-1.6933 1.3998-0.67734 0.8806-1.0612 1.9643-0.36124 1.0837-0.36124 2.2352z" style="font-variant-caps:normal;font-variant-east-asian:normal;font-variant-ligatures:normal;font-variant-numeric:normal;font-variation-settings:'wght' 537"/>
    <path d="m151.17 1280v11.921h-2.2126v-16.03h1.8514l9.5278 12.192v-12.17h2.2352v16.008h-1.9868z" style="font-variant-caps:normal;font-variant-east-asian:normal;font-variant-ligatures:normal;font-variant-numeric:normal;font-variation-settings:'wght' 537"/>
    <path d="m175.77 1279.4q-0.24836-0.2935-0.69992-0.587-0.42897-0.2935-1.016-0.5193-0.56444-0.2484-1.2418-0.4064-0.65475-0.1581-1.3772-0.1581-1.7611 0-2.5964 0.6774-0.83538 0.6547-0.83538 1.8062 0 0.8128 0.42898 1.3095 0.45156 0.4742 1.3547 0.7902 0.92569 0.2936 2.3255 0.6322 1.6708 0.3613 2.8674 0.8806 1.2192 0.5192 1.8514 1.3998 0.65476 0.8805 0.65476 2.3255 0 1.174-0.45156 2.032-0.42898 0.858-1.2418 1.4224-0.79022 0.5419-1.8514 0.8128-1.0612 0.2484-2.3029 0.2484-1.1966 0-2.3707-0.2484-1.174-0.2709-2.2352-0.7451-1.0386-0.4967-1.9417-1.2192l1.0386-1.8965q0.33867 0.3612 0.90312 0.7225 0.56444 0.3612 1.2869 0.6773 0.74507 0.3161 1.603 0.5193 0.85795 0.2032 1.7611 0.2032 1.6482 0 2.5287-0.587 0.90311-0.587 0.90311-1.7159 0-0.8806-0.54187-1.3999-0.51929-0.5192-1.5353-0.8579-1.016-0.3613-2.461-0.7225-1.603-0.4064-2.7093-0.9031-1.0837-0.4967-1.6256-1.2869-0.54186-0.7903-0.54186-2.0546 0-1.5579 0.74506-2.6191 0.76765-1.0837 2.0772-1.6256 1.3095-0.5418 2.9577-0.5418 1.0837 0 2.032 0.2258 0.94826 0.2257 1.7611 0.6321 0.83538 0.4064 1.5127 0.9709z" style="font-variant-caps:normal;font-variant-east-asian:normal;font-variant-ligatures:normal;font-variant-numeric:normal;font-variation-settings:'wght' 537"/>
    <path d="m191.72 1277.9h-5.4412v14.066h-2.2352v-14.066h-5.4638v-1.9642h13.14z" style="font-variant-caps:normal;font-variant-east-asian:normal;font-variant-ligatures:normal;font-variant-numeric:normal;font-variation-settings:'wght' 537"/>
    <path d="m193.98 1291.9v-16.03h6.9088q1.0612 0 1.9417 0.4515 0.90311 0.429 1.5579 1.1741 0.67733 0.745 1.0386 1.6707 0.36124 0.9031 0.36124 1.874 0 1.0837-0.4064 2.0771-0.4064 0.9709-1.1515 1.6708-0.74506 0.6999-1.7159 0.9934l3.8382 6.1186h-2.5061l-3.5899-5.6896h-4.064v5.6896zm2.2126-7.6539h4.6962q0.79022 0 1.3772-0.4289 0.58703-0.4516 0.92569-1.1967 0.33867-0.745 0.33867-1.5804 0-0.8805-0.38382-1.603-0.38382-0.7451-1.016-1.1741t-1.3772-0.429h-4.5607z" style="font-variant-caps:normal;font-variant-east-asian:normal;font-variant-ligatures:normal;font-variant-numeric:normal;font-variation-settings:'wght' 537"/>
    <path d="m215.48 1292q-1.9191 0-3.2286-0.6548-1.3095-0.6773-2.1223-1.8062-0.79023-1.1289-1.1515-2.5739-0.36125-1.4449-0.36125-3.0028v-8.1054h2.2126v8.1054q0 1.1515 0.22578 2.2352 0.24835 1.0837 0.76764 1.9417 0.51929 0.8579 1.4224 1.3772 0.90311 0.4967 2.2352 0.4967t2.2352-0.5192q0.90311-0.5193 1.4224-1.3773 0.51929-0.8805 0.74507-1.9417 0.24835-1.0837 0.24835-2.2126v-8.1054h2.2126v8.1054q0 1.6482-0.38383 3.1157-0.38382 1.445-1.1966 2.5513-0.8128 1.0838-2.1223 1.7385-1.2869 0.6322-3.1609 0.6322z" style="font-variant-caps:normal;font-variant-east-asian:normal;font-variant-ligatures:normal;font-variant-numeric:normal;font-variation-settings:'wght' 537"/>
    <path d="m224.85 1283.8q0-1.4676 0.49671-2.8674 0.51929-1.4224 1.5127-2.5739 0.99342-1.174 2.4158-1.8513 1.4224-0.6999 3.2512-0.6999 2.1449 0 3.6802 0.9934 1.5579 0.9708 2.3255 2.5061l-1.7385 1.1515q-0.47413-0.9934-1.1966-1.5805-0.72249-0.587-1.5579-0.8353-0.8128-0.2484-1.603-0.2484-1.3095 0-2.3255 0.5419-0.99342 0.5193-1.6708 1.3998-0.67734 0.8805-1.016 1.9643-0.33866 1.0837-0.33866 2.19 0 1.2192 0.4064 2.3481 0.4064 1.1063 1.1289 1.9643 0.72249 0.8579 1.7159 1.3772 0.99342 0.4967 2.1675 0.4967 0.8128 0 1.6708-0.2935 0.85795-0.2935 1.603-0.8805 0.74507-0.6096 1.1966-1.5805l1.8288 1.016q-0.49672 1.1967-1.5353 2.032-1.0386 0.8354-2.3255 1.2644-1.2869 0.429-2.5287 0.429-1.6708 0-3.0706-0.6999-1.3772-0.7225-2.3932-1.8966-0.99342-1.1966-1.5579-2.6642-0.54186-1.4901-0.54186-3.0028z" style="font-variant-caps:normal;font-variant-east-asian:normal;font-variant-ligatures:normal;font-variant-numeric:normal;font-variation-settings:'wght' 537"/>
    <path d="m252.93 1277.9h-5.4412v14.066h-2.2352v-14.066h-5.4638v-1.9642h13.14z" style="font-variant-caps:normal;font-variant-east-asian:normal;font-variant-ligatures:normal;font-variant-numeric:normal;font-variation-settings:'wght' 537"/>
    <path d="m255.19 1291.9v-16.03h2.2126v16.03z" style="font-variant-caps:normal;font-variant-east-asian:normal;font-variant-ligatures:normal;font-variant-numeric:normal;font-variation-settings:'wght' 537"/>
    <path d="m267.76 1292q-1.7159 0-3.1157-0.6773-1.3772-0.6774-2.3932-1.8288-0.99342-1.1741-1.5353-2.6191-0.54187-1.4675-0.54187-3.0028 0-1.603 0.56445-3.048 0.58702-1.4676 1.603-2.5965 1.0386-1.1514 2.4158-1.8062 1.3998-0.6773 3.048-0.6773 1.6933 0 3.0706 0.6999 1.3998 0.6999 2.3932 1.8739 1.016 1.1741 1.5579 2.6191 0.54186 1.445 0.54186 2.9577 0 1.603-0.56444 3.0705-0.56445 1.445-1.603 2.5965-1.0386 1.1289-2.4384 1.7836-1.3772 0.6548-3.0028 0.6548zm-5.3509-8.128q0 1.1966 0.38382 2.3029t1.0837 1.9643q0.69992 0.8579 1.6933 1.3772 0.99342 0.4967 2.2126 0.4967 1.2644 0 2.2352-0.5192 0.99342-0.5419 1.6708-1.4224 0.69991-0.8806 1.0612-1.9643 0.36124-1.1063 0.36124-2.2352 0-1.1966-0.38382-2.2804-0.38382-1.1063-1.1063-1.9642-0.69991-0.8806-1.6708-1.3773-0.97084-0.4967-2.1675-0.4967-1.2644 0-2.2578 0.5193-0.99342 0.5193-1.6933 1.3998-0.67734 0.8806-1.0612 1.9643-0.36124 1.0837-0.36124 2.2352z" style="font-variant-caps:normal;font-variant-east-asian:normal;font-variant-ligatures:normal;font-variant-numeric:normal;font-variation-settings:'wght' 537"/>
    <path d="m280.29 1280v11.921h-2.2126v-16.03h1.8514l9.5278 12.192v-12.17h2.2352v16.008h-1.9868z" style="font-variant-caps:normal;font-variant-east-asian:normal;font-variant-ligatures:normal;font-variant-numeric:normal;font-variation-settings:'wght' 537"/>
   </g>
  </g>
  <g>
   <rect x="-301.63" y="-124.12" width="1115.8" height="95.25" fill="#ebcb8b" style="mix-blend-mode:normal"/>
   <path d="m-292.8 312.11 1107.5 89.796-0.0898 96.068-1115.2-90.931z" fill="#ebcb8b" style="font-variation-settings:'wght' 537;mix-blend-mode:normal"/>
   <path d="m-292.8 312.11 1107.5 89.796-0.0898 96.068-1115.2-90.931z" fill="url(#pattern3175)" style="font-variation-settings:'wght' 537;mix-blend-mode:normal"/>
   <path d="m-300.55 1031.5 1115.2-494.39 0.0495 115.77-1115.1 505z" fill="#ebcb8b" style="font-variation-settings:'wght' 537;mix-blend-mode:normal"/>
   <path d="m-300.55 1031.5 1115.2-494.39 0.0495 115.77-1115.1 505z" fill="url(#pattern3269)" style="font-variation-settings:'wght' 537;mix-blend-mode:normal"/>
   <path d="m-300.59 520.27 1115.2 600.21 0.04963 117.75-1115.2-589.2z" fill="#ebcb8b" style="font-variation-settings:'wght' 537;mix-blend-mode:normal"/>
   <path d="m-300.75 313.52 1115.4-295.58-0.04086 106.08-1115.2 283.02z" fill="#ebcb8b" style="font-variation-settings:'wght' 537;mix-blend-mode:normal"/>
  </g>
  <rect x="-301.63" y="-124.12" width="1115.8" height="95.25" fill="none" style="mix-blend-mode:normal"/>
  <rect x="-301.63" y="-124.12" width="1115.8" height="95.25" fill="url(#pattern3271)" style="mix-blend-mode:normal"/>
  <rect x="-301.63" y="-28.868" width="1115.8" height="95.25" fill="none" style="font-variation-settings:'wght' 537;mix-blend-mode:normal"/>
  <rect x="-74.51" y="28.057" width="77.327" height="43.838" fill="none" style="mix-blend-mode:normal"/>
  <path d="m-300.75 313.52 1115.4-295.58-0.04086 106.08-1115.2 283.02z" fill="url(#pattern3167)" style="font-variation-settings:'wght' 537;mix-blend-mode:normal"/>
  <path d="m-300.59 520.27 1115.2 600.21 0.04963 117.75-1115.2-589.2z" fill="url(#pattern3261)" style="font-variation-settings:'wght' 537;mix-blend-mode:normal"/>
 </g>
</svg>
